<?xml version="1.0" encoding="utf-8"?>
<!-- Generator: Adobe Illustrator 20.1.0, SVG Export Plug-In . SVG Version: 6.00 Build 0)  -->
<svg version="1.1" id="Layer_1" xmlns="http://www.w3.org/2000/svg" xmlns:xlink="http://www.w3.org/1999/xlink" x="0px" y="0px"
	 viewBox="0 0 200 200" style="enable-background:new 0 0 200 200;" xml:space="preserve">
<style type="text/css">
	.st0{fill:#A6A8AB;}
	.st1{fill:#1955A6;}
	.st2{fill:none;stroke:#A6A8AB;stroke-width:2;stroke-miterlimit:10;}
	.st3{fill:#548CC9;}
</style>
<g>
	<g>
		<g>
			<rect x="82.2" y="93.2" transform="matrix(0.7071 -0.7071 0.7071 0.7071 -40.5072 90.6645)" class="st0" width="14" height="2"/>
			<rect x="60.5" y="40.8" transform="matrix(0.7071 -0.7071 0.7071 0.7071 -34.7309 65.719)" class="st1" width="3" height="68"/>
		</g>
		<polygon class="st1" points="95,89.7 47,41.7 44.9,43.8 92,90.9 92,158.3 95,158.3 		"/>
	</g>
	<rect x="95" y="94.3" width="10" height="2"/>
	<rect x="95" y="101.3" width="10" height="2"/>
</g>
<g>
	<g>
		<path class="st2" d="M119.5,78.3v7c0,1.7-1.3,3-3,3H116c-1.7,0-3-1.3-3-3v-18c0-1.6-1.3-3-3-3h-0.5c-1.7,0-3,1.4-3,3v23"/>
	</g>
	<g>
		<polygon class="st3" points="117,69.3 122,66.3 122,84.3 117,84.3 		"/>
		<polygon class="st3" points="109,69.3 104,66.3 104,84.3 109,84.3 		"/>
	</g>
</g>
<rect x="105" y="90.3" class="st1" width="3" height="68"/>
</svg>
