<?xml version="1.0" encoding="utf-8"?>
<!-- Generator: Adobe Illustrator 17.1.0, SVG Export Plug-In . SVG Version: 6.00 Build 0)  -->
<!DOCTYPE svg PUBLIC "-//W3C//DTD SVG 1.1//EN" "http://www.w3.org/Graphics/SVG/1.1/DTD/svg11.dtd">
<svg version="1.1" id="Layer_1" xmlns="http://www.w3.org/2000/svg" xmlns:xlink="http://www.w3.org/1999/xlink" x="0px" y="0px"
	 viewBox="23 0 8 10" enable-background="new 23 0 8 10" xml:space="preserve">
<path fill="#999999" d="M29.8,1.4h-0.6c-0.1-0.1-0.2-0.2-0.4-0.2c-0.5,0-0.6-0.2-0.8-0.6C27.7,0.4,27.5,0,26.8,0
	c-0.6,0-0.9,0.4-1.1,0.7c-0.2,0.3-0.4,0.6-0.8,0.6c-0.1,0-0.3,0.1-0.4,0.2h-0.6c-0.5,0-0.9,0.4-0.9,0.9v6.7c0,0.5,0.4,0.9,0.9,0.9
	h5.8c0.5,0,0.9-0.4,0.9-0.9V2.4C30.7,1.8,30.3,1.4,29.8,1.4z M26.2,1c0.2-0.3,0.3-0.5,0.7-0.5s0.5,0.2,0.7,0.5
	c0.2,0.3,0.5,0.8,1.2,0.8c0.1,0,0.3,0.3,0.3,0.5h-4.5c0.1-0.3,0.2-0.5,0.3-0.5C25.7,1.7,25.9,1.3,26.2,1z M30,8.8
	c0,0.3-0.3,0.6-0.6,0.6h-5.1c-0.3,0-0.6-0.3-0.6-0.6v-6c0-0.3,0.2-0.5,0.4-0.6c0,0.1-0.1,0.3-0.1,0.4c0,0.1,0.1,0.2,0.2,0.2h5.1
	c0.1,0,0.2-0.1,0.2-0.2c0-0.1,0-0.2-0.1-0.4C29.8,2.2,30,2.4,30,2.7L30,8.8L30,8.8z"/>
<ellipse fill="#999999" cx="26.8" cy="1.2" rx="0.3" ry="0.3"/>
<rect x="24.3" y="3.5" fill="#999999" width="5.1" height="0.5"/>
<rect x="24.3" y="4.5" fill="#999999" width="5.1" height="0.5"/>
<rect x="24.3" y="5.6" fill="#999999" width="5.1" height="0.5"/>
<rect x="24.3" y="6.6" fill="#999999" width="5.1" height="0.5"/>
<rect x="24.3" y="7.6" fill="#999999" width="5.1" height="0.5"/>
</svg>
