<?xml version="1.0" encoding="utf-8"?>
<!-- Generator: Adobe Illustrator 17.1.0, SVG Export Plug-In . SVG Version: 6.00 Build 0)  -->
<!DOCTYPE svg PUBLIC "-//W3C//DTD SVG 1.1//EN" "http://www.w3.org/Graphics/SVG/1.1/DTD/svg11.dtd">
<svg version="1.1" id="Layer_1" xmlns="http://www.w3.org/2000/svg" xmlns:xlink="http://www.w3.org/1999/xlink" x="0px" y="0px"
	 viewBox="0 0 8 10" enable-background="new 0 0 8 10" xml:space="preserve">
<path d="M6.8,1.4H6.1C6,1.3,5.9,1.3,5.7,1.3C5.2,1.3,5.1,1,4.9,0.7C4.7,0.4,4.5,0,3.8,0C3.2,0,3,0.4,2.8,0.7C2.6,1,2.4,1.3,1.9,1.3
	c-0.1,0-0.3,0.1-0.4,0.2H0.9C0.4,1.4,0,1.8,0,2.4v6.7C0,9.6,0.4,10,0.9,10h5.8c0.5,0,0.9-0.4,0.9-0.9V2.4C7.7,1.8,7.3,1.4,6.8,1.4z
	 M3.2,1c0.2-0.3,0.3-0.5,0.7-0.5c0.3,0,0.5,0.2,0.7,0.5C4.7,1.3,5,1.7,5.7,1.7C5.8,1.7,6,2,6.1,2.3H1.6C1.7,2,1.8,1.7,1.9,1.7
	C2.7,1.7,2.9,1.3,3.2,1z M7,8.8c0,0.3-0.3,0.6-0.6,0.6H1.3c-0.3,0-0.6-0.3-0.6-0.6v-6c0-0.3,0.2-0.5,0.4-0.6c0,0.1-0.1,0.3-0.1,0.4
	c0,0.1,0.1,0.2,0.2,0.2h5.1c0.1,0,0.2-0.1,0.2-0.2c0-0.1,0-0.2-0.1-0.4C6.8,2.2,7,2.4,7,2.7L7,8.8L7,8.8z"/>
<ellipse cx="3.8" cy="1.2" rx="0.3" ry="0.3"/>
<rect x="1.3" y="3.5" width="5.1" height="0.5"/>
<rect x="1.3" y="4.5" width="5.1" height="0.5"/>
<rect x="1.3" y="5.6" width="5.1" height="0.5"/>
<rect x="1.3" y="6.6" width="5.1" height="0.5"/>
<rect x="1.3" y="7.6" width="5.1" height="0.5"/>
</svg>
