<?xml version="1.0" encoding="utf-8"?>
<!-- Generator: Adobe Illustrator 20.1.0, SVG Export Plug-In . SVG Version: 6.00 Build 0)  -->
<svg version="1.1" id="Layer_1" xmlns="http://www.w3.org/2000/svg" xmlns:xlink="http://www.w3.org/1999/xlink" x="0px" y="0px"
	 viewBox="0 0 200 200" style="enable-background:new 0 0 200 200;" xml:space="preserve">
<style type="text/css">
	.st0{fill:none;stroke:#A6A8AB;stroke-width:2;stroke-miterlimit:10;}
	.st1{fill:#A8C5E7;}
	.st2{fill:#548CC9;}
</style>
<g>
	<path class="st0" d="M76,83v14c0,3.3,2.7,6,6,6l0,0c3.3,0,6-2.7,6-6V61c0-3.3,2.7-6,6-6s6,2.7,6,6v50"/>
</g>
<g>
	<path class="st0" d="M100,125v14c0,3.3,2.7,6,6,6l0,0c3.3,0,6-2.7,6-6v-36c0-3.3,2.7-6,6-6s6,2.7,6,6v34"/>
</g>
<g>
	<polygon class="st1" points="80,67 72,59 72,95 80,95 	"/>
	<polygon class="st1" points="96,67 104,59 104,95 96,95 	"/>
</g>
<g>
	<polygon class="st2" points="104,109 96,101 96,137 104,137 	"/>
	<polygon class="st2" points="120,109 128,101 128,137 120,137 	"/>
</g>
</svg>
