<?xml version="1.0" encoding="utf-8"?>
<!-- Generator: Adobe Illustrator 20.1.0, SVG Export Plug-In . SVG Version: 6.00 Build 0)  -->
<svg version="1.1" id="Layer_1" xmlns="http://www.w3.org/2000/svg" xmlns:xlink="http://www.w3.org/1999/xlink" x="0px" y="0px"
	 viewBox="0 0 200 200" style="enable-background:new 0 0 200 200;" xml:space="preserve">
<style type="text/css">
	.st0{fill:#A6A8AB;}
	.st1{fill:#00AFE7;}
	.st2{fill:#1955A6;}
	.st3{fill:#231F20;}
</style>
<g>
	<g>
		<g>
			<g>
				
					<rect x="82.3" y="93.6" transform="matrix(0.7071 -0.7071 0.7071 0.7071 -40.5679 90.8109)" class="st0" width="14" height="1.6"/>
				<rect x="60.5" y="40.8" transform="matrix(0.7071 -0.7071 0.7071 0.7071 -34.7309 65.719)" class="st1" width="3" height="68"/>
			</g>
			<polygon class="st1" points="95,89.7 47,41.7 44.9,43.8 92,90.9 92,158.3 95,158.3 			"/>
		</g>
		<g>
			<g>
				
					<rect x="109.9" y="87.4" transform="matrix(0.7071 -0.7071 0.7071 0.7071 -34.3202 105.8942)" class="st0" width="1.6" height="14"/>
				
					<rect x="136.5" y="40.8" transform="matrix(-0.7071 -0.7071 0.7071 -0.7071 182.7616 225.2691)" class="st2" width="3" height="68"/>
			</g>
			<polygon class="st2" points="105,89.7 153,41.7 155.1,43.8 108,90.9 108,158.3 105,158.3 			"/>
		</g>
	</g>
</g>
<rect x="95" y="94.3" class="st3" width="10" height="2"/>
<rect x="95" y="101.3" class="st3" width="10" height="2"/>
</svg>
