<?xml version="1.0" encoding="utf-8"?>
<!-- Generator: Adobe Illustrator 20.1.0, SVG Export Plug-In . SVG Version: 6.00 Build 0)  -->
<svg version="1.1" id="Layer_1" xmlns="http://www.w3.org/2000/svg" xmlns:xlink="http://www.w3.org/1999/xlink" x="0px" y="0px"
	 viewBox="0 0 200 200" style="enable-background:new 0 0 200 200;" xml:space="preserve">
<style type="text/css">
	.st0{fill:none;stroke:#A6A8AB;stroke-width:2;stroke-miterlimit:10;}
	.st1{fill:#A8C5E7;}
	.st2{fill:#A6A8AB;}
	.st3{fill:#1955A6;}
	.st4{fill:#00AFE7;}
</style>
<g>
	<g>
		<path class="st0" d="M80.5,152.3v7c0,1.7-1.3,3-3,3H77c-1.7,0-3-1.3-3-3v-19c0-1.6-1.3-3-3-3h-0.5c-1.7,0-3,1.4-3,3v18"/>
	</g>
	<g>
		<path class="st0" d="M93.5,152.3v7c0,1.7-1.3,3-3,3H90c-1.7,0-3-1.3-3-3v-19c0-1.6-1.3-3-3-3h-0.5c-1.7,0-3,1.4-3,3v18"/>
	</g>
	<g>
		<polygon class="st1" points="78,143.3 83,140.3 83,158.3 78,158.3 		"/>
		<polygon class="st1" points="70,143.3 65,140.3 65,158.3 70,158.3 		"/>
	</g>
</g>
<g>
	<g>
		<path class="st0" d="M119.5,152.3v7c0,1.7,1.3,3,3,3h0.5c1.7,0,3-1.3,3-3v-19c0-1.6,1.3-3,3-3h0.5c1.6,0,3,1.4,3,3v18"/>
	</g>
	<g>
		<path class="st0" d="M106.5,152.3v7c0,1.7,1.3,3,3,3h0.5c1.7,0,3-1.3,3-3v-19c0-1.6,1.3-3,3-3h0.5c1.7,0,3,1.4,3,3v18"/>
	</g>
	<g>
		<polygon class="st1" points="122,143.3 117,140.3 117,158.3 122,158.3 		"/>
		<polygon class="st1" points="130,143.3 135,140.3 135,158.3 130,158.3 		"/>
	</g>
</g>
<g>
	<g>
		<polygon class="st2" points="117.1,79.9 115.1,79.9 115.1,99.9 117.1,97.9 		"/>
		<g>
			<g>
				<polygon class="st3" points="115.1,99.9 115.1,95.6 161,49.7 163.1,51.8 				"/>
			</g>
			<polygon class="st3" points="105,89.7 153,41.7 155.1,43.8 108,90.9 108,158.3 105,158.3 			"/>
		</g>
	</g>
	<g>
		<polygon class="st2" points="82.9,79.9 84.9,79.9 84.9,99.9 82.9,97.9 		"/>
		<g>
			<g>
				<polygon class="st4" points="84.9,99.9 84.9,95.6 39,49.7 36.9,51.8 				"/>
			</g>
			<polygon class="st4" points="95,89.7 47,41.7 44.9,43.8 92,90.9 92,158.3 95,158.3 			"/>
		</g>
	</g>
	<rect x="95" y="94.3" width="10" height="2"/>
	<rect x="95" y="101.3" width="10" height="2"/>
	<rect x="95" y="108.3" width="10" height="2"/>
	<rect x="95" y="115.3" width="10" height="2"/>
</g>
</svg>
