<?xml version="1.0" encoding="utf-8"?>
<!-- Generator: Adobe Illustrator 20.1.0, SVG Export Plug-In . SVG Version: 6.00 Build 0)  -->
<svg version="1.1" id="Layer_1" xmlns="http://www.w3.org/2000/svg" xmlns:xlink="http://www.w3.org/1999/xlink" x="0px" y="0px"
	 viewBox="0 0 200 200" style="enable-background:new 0 0 200 200;" xml:space="preserve">
<style type="text/css">
	.st0{fill:#A6A8AB;}
	.st1{fill:#1955A6;}
	.st2{fill:#00AFE7;}
	.st3{fill:#231F20;}
</style>
<g>
	<g>
		<polygon class="st0" points="117.1,79.9 115.1,79.9 115.1,99.9 117.1,97.9 		"/>
		<g>
			<g>
				<polygon class="st1" points="115.1,99.9 115.1,95.6 161,49.7 163.1,51.8 				"/>
			</g>
			<polygon class="st1" points="105,89.7 153,41.7 155.1,43.8 108,90.9 108,158.3 105,158.3 			"/>
		</g>
	</g>
	<g>
		<polygon class="st0" points="82.9,79.9 84.9,79.9 84.9,99.9 82.9,97.9 		"/>
		<g>
			<g>
				<polygon class="st2" points="84.9,99.9 84.9,95.6 39,49.7 36.9,51.8 				"/>
			</g>
			<polygon class="st2" points="95,89.7 47,41.7 44.9,43.8 92,90.9 92,158.3 95,158.3 			"/>
		</g>
	</g>
	<rect x="95" y="94.3" class="st3" width="10" height="2"/>
	<rect x="95" y="101.3" class="st3" width="10" height="2"/>
	<rect x="95" y="108.3" class="st3" width="10" height="2"/>
	<rect x="95" y="115.3" class="st3" width="10" height="2"/>
</g>
</svg>
