<?xml version="1.0" encoding="utf-8"?>
<!-- Generator: Adobe Illustrator 20.1.0, SVG Export Plug-In . SVG Version: 6.00 Build 0)  -->
<svg version="1.1" id="Layer_1" xmlns="http://www.w3.org/2000/svg" xmlns:xlink="http://www.w3.org/1999/xlink" x="0px" y="0px"
	 viewBox="0 0 200 200" style="enable-background:new 0 0 200 200;" xml:space="preserve">
<style type="text/css">
	.st0{fill:none;stroke:#A6A8AB;stroke-width:2;stroke-miterlimit:10;}
	.st1{fill:#A8C5E7;}
	.st2{fill:#548CC9;}
	.st3{fill:#1955A6;}
</style>
<g>
	<g>
		<path class="st0" d="M54,82.5v14c0,3.3,2.7,6,6,6l0,0c3.3,0,6-2.7,6-6v-36c0-3.3,2.7-6,6-6s6,2.7,6,6v50"/>
	</g>
	<g>
		<path class="st0" d="M78,124.5v14c0,3.3,2.7,6,6,6l0,0c3.3,0,6-2.7,6-6v-36c0-3.3,2.7-6,6-6s6,2.7,6,6v34"/>
	</g>
	<g>
		<path class="st0" d="M102,124.5v14c0,3.3,2.7,6,6,6l0,0c3.3,0,6-2.7,6-6v-78c0-3.3,2.7-6,6-6s6,2.7,6,6v76"/>
	</g>
	<g>
		<polygon class="st1" points="58,66.5 50,58.5 50,94.5 58,94.5 		"/>
		<polygon class="st1" points="74,66.5 82,58.5 82,94.5 74,94.5 		"/>
	</g>
	<g>
		<polygon class="st2" points="82,108.5 74,100.5 74,136.5 82,136.5 		"/>
		<polygon class="st2" points="98,108.5 106,100.5 106,136.5 98,136.5 		"/>
	</g>
	<g>
		<g>
			<g>
				<rect x="122" y="62.5" class="st3" width="8" height="74"/>
				<rect x="142" y="62.5" class="st3" width="8" height="74"/>
			</g>
			<rect x="130" y="69.5" width="12" height="2"/>
			<rect x="130" y="76.5" width="12" height="2"/>
		</g>
	</g>
</g>
</svg>
