<?xml version="1.0" encoding="UTF-8" standalone="no"?>
<svg width="120px" height="120px" viewBox="0 0 120 120" version="1.1" xmlns="http://www.w3.org/2000/svg" xmlns:xlink="http://www.w3.org/1999/xlink">
    <!-- Generator: Sketch 39.1 (31720) - http://www.bohemiancoding.com/sketch -->
    <title>cancer</title>
    <desc>Created with Sketch.</desc>
    <defs>
        <circle id="path-1" cx="60" cy="60" r="60"></circle>
        <mask id="mask-2" maskContentUnits="userSpaceOnUse" maskUnits="objectBoundingBox" x="0" y="0" width="120" height="120" fill="white">
            <use xlink:href="#path-1"></use>
        </mask>
        <rect id="path-3" x="52" y="16" width="20" height="15" rx="4"></rect>
        <mask id="mask-4" maskContentUnits="userSpaceOnUse" maskUnits="objectBoundingBox" x="0" y="0" width="20" height="15" fill="white">
            <use xlink:href="#path-3"></use>
        </mask>
        <path d="M26,3.99922997 C26,1.79051625 27.7941203,-7.10542736e-14 29.9968389,-7.10542736e-14 L50.0031611,-7.10542736e-14 C52.2105543,-7.10542736e-14 55.2662623,1.26626235 56.8230926,2.82309264 L71.1769074,17.1769074 C72.7360584,18.7360584 72.2059475,20 69.9901068,20 L30.0098932,20 C27.7952903,20 26,18.2075324 26,16.00077 L26,3.99922997 Z" id="path-5"></path>
        <mask id="mask-6" maskContentUnits="userSpaceOnUse" maskUnits="objectBoundingBox" x="0" y="0" width="46.0717531" height="20" fill="white">
            <use xlink:href="#path-5"></use>
        </mask>
        <rect id="path-7" x="26" y="-7.10542736e-14" width="20" height="72" rx="4"></rect>
        <mask id="mask-8" maskContentUnits="userSpaceOnUse" maskUnits="objectBoundingBox" x="0" y="0" width="20" height="72" fill="white">
            <use xlink:href="#path-7"></use>
        </mask>
        <rect id="path-9" x="-7.10542736e-15" y="26" width="72.0999985" height="20" rx="4"></rect>
        <mask id="mask-10" maskContentUnits="userSpaceOnUse" maskUnits="objectBoundingBox" x="0" y="0" width="72.0999985" height="20" fill="white">
            <use xlink:href="#path-9"></use>
        </mask>
    </defs>
    <g id="Page-1" stroke="none" stroke-width="1" fill="none" fill-rule="evenodd">
        <g id="cancer" stroke-width="8" stroke="#FE00FF">
            <g id="Group-27-Copy">
                <g id="Group-5-Copy-3">
                    <use id="Oval-3" mask="url(#mask-2)" xlink:href="#path-1"></use>
                </g>
                <g id="Group-9" transform="translate(60.646447, 62.353553) rotate(-45.000000) translate(-60.646447, -62.353553) translate(24.146447, 26.353553)" fill="#FFFFFF">
                    <use id="Rectangle-7" mask="url(#mask-4)" xlink:href="#path-3"></use>
                    <use id="Rectangle-4" stroke-opacity="0.2" mask="url(#mask-6)" xlink:href="#path-5"></use>
                    <use id="Rectangle-4" mask="url(#mask-8)" xlink:href="#path-7"></use>
                    <use id="Rectangle-4" stroke-opacity="0.2" mask="url(#mask-10)" xlink:href="#path-9"></use>
                </g>
            </g>
        </g>
    </g>
</svg>