<?xml version="1.0" encoding="UTF-8" standalone="no"?>
<svg width="120px" height="120px" viewBox="0 0 120 120" version="1.1" xmlns="http://www.w3.org/2000/svg" xmlns:xlink="http://www.w3.org/1999/xlink">
    <!-- Generator: Sketch 39.1 (31720) - http://www.bohemiancoding.com/sketch -->
    <title>cell</title>
    <desc>Created with Sketch.</desc>
    <defs>
        <circle id="path-1" cx="60" cy="60" r="60"></circle>
        <mask id="mask-2" maskContentUnits="userSpaceOnUse" maskUnits="objectBoundingBox" x="0" y="0" width="120" height="120" fill="white">
            <use xlink:href="#path-1"></use>
        </mask>
    </defs>
    <g id="Page-1" stroke="none" stroke-width="1" fill="none" fill-rule="evenodd">
        <g id="cell">
            <g id="Group-25">
                <g id="Group-5-Copy" stroke="#79F800" stroke-width="8">
                    <use id="Oval-3" mask="url(#mask-2)" xlink:href="#path-1"></use>
                </g>
                <g id="Group-7" transform="translate(22.000000, 28.000000)">
                    <path d="M48,36 C63.140014,36 76,36 76,36 C76,16.117749 58.9868205,0 38,0 C17.0141172,0 0.00152024994,16.1163088 1.01881722e-07,35.9973351 C0,49.254834 10.745166,60 24,60 C34.0247401,60 42.6139447,53.853742 46.2048556,45.1239842 C48.9866745,50.4357493 54.1233482,54 60,54 C68.836556,54 76,45.9411255 76,36 C76,36.0000001 56.5842013,36.0000001 47.9999933,36 Z" id="Combined-Shape" fill="#C9FC99"></path>
                    <circle id="Oval-5-Copy" fill="#79F800" cx="56" cy="32" r="12"></circle>
                    <circle id="Oval-5-Copy-2" fill="#FFFFFF" cx="38" cy="18" r="6"></circle>
                    <circle id="Oval-5-Copy-3" fill="#FFFFFF" cx="12" cy="42" r="4"></circle>
                    <g id="Group" transform="translate(20.000000, 10.000000)" fill="#79F800">
                        <path d="M2.00000002,4.00000001 C2.00000002,1.79688569 2.00000002,0 2,0 C5.3137085,0 8,2.6862915 8,6 C8,8.57279727 6.38066886,10.7673795 4.10562184,11.6201314 C3.45045639,11.8657059 2.74091123,12 2,12 C2,12 2.00000001,10.2031143 2.00000001,8.00000002 C2.24697042,8 2.48348547,7.9552353 2.70187395,7.87337713 C3.46022295,7.5891265 4,6.85759909 4,6 C4,4.89543051 3.10456951,4.00000001 2.00000002,4 Z M2,4 C2,4 2,0 2,0 C0.8954305,0 0,0.8954305 0,2 C0,3.1045695 0.8954305,4 2,4 Z M2,12 C2,12 2,8 2,8 C0.8954305,8 0,8.8954305 0,10 C0,11.1045695 0.8954305,12 2,12 Z" id="Combined-Shape"></path>
                    </g>
                    <g id="Group-6" transform="translate(28.849242, 38.849242) rotate(-45.000000) translate(-28.849242, -38.849242) translate(17.849242, 28.849242)">
                        <g id="Group-3-Copy-7" transform="translate(-0.000000, -0.000000)" fill="#79F800">
                            <path d="M16,4.00000001 C16,1.79688569 16,0 16,0 C19.3137085,0 22,2.6862915 22,6 C22,8.57279727 20.3806689,10.7673795 18.1056218,11.6201314 C17.4504564,11.8657059 16.7409112,12 16,12 C16,12 16,10.2031143 16,8.00000002 C16.2469704,8 16.4834855,7.9552353 16.7018739,7.87337713 C17.460223,7.5891265 18,6.85759909 18,6 C18,4.89543051 17.1045695,4.00000001 16,4 Z M6,16 L10.0020869,16 C11.1055038,16 12,16.8877296 12,18 C12,19.1045695 11.1017394,20 10.0020869,20 L6,20 L6,16 Z M6,20 C6,20 6,8 6,8 C2.6862915,8 0,10.6862915 0,14 C0,17.3137085 2.6862915,20 6,20 Z M6,16 C6,16 6,12 6,12 C4.8954305,12 4,12.8954305 4,14 C4,15.1045695 4.8954305,16 6,16 Z M6,2 C6,0.8954305 6.88743329,0 7.99961498,0 L16,0 L16,4 L7.99961498,4 C6.89525812,4 6,3.11227036 6,2 Z M6,8 L16,8 L16,12 L6,12 L6,8 Z" id="Combined-Shape"></path>
                        </g>
                        <g id="Group-2-Copy-7" transform="translate(0.000000, 8.000000)"></g>
                    </g>
                </g>
            </g>
        </g>
    </g>
</svg>