<?xml version="1.0" encoding="UTF-8" standalone="no"?>
<svg width="137px" height="137px" viewBox="0 0 137 137" version="1.1" xmlns="http://www.w3.org/2000/svg" xmlns:xlink="http://www.w3.org/1999/xlink">
    <!-- Generator: Sketch 39.1 (31720) - http://www.bohemiancoding.com/sketch -->
    <title>Computational Biology</title>
    <desc>Created with Sketch.</desc>
    <defs>
        <circle id="path-1" cx="66.5" cy="66.5" r="66.5"></circle>
        <path d="M110.470617,25.1149291 C115.699816,42.4053617 114.26607,61.0124944 106.45378,77.2164957 L93.6852303,70.9139597 C102.53186,52.5555335 100.973833,30.784545 89.5954699,13.8050524 C81.5613425,1.81603357 69.3406854,-6.69100378 55.3887381,-10.0031768 L58.586052,-23.9383681 C83.2844234,-18.0680334 103.063016,0.633543616 110.470617,25.1149291 Z" id="path-3"></path>
        <mask id="mask-4" maskContentUnits="userSpaceOnUse" maskUnits="objectBoundingBox" x="0" y="0" width="58.1772605" height="101.154864" fill="white">
            <use xlink:href="#path-3"></use>
        </mask>
        <path d="M48.6054206,115.17599 C45.076934,115.419204 41.5286547,115.390605 38,115.098006 L39.1010328,100.83994 C59.3218668,102.515157 78.8366067,93.1905427 90.3083987,76.3777708 C91.9119152,74.0270865 93.3315886,71.5678295 94.567419,69 L107.335969,75.302536 C96.2752186,98.2500802 73.8871336,113.449841 48.6054206,115.17599 Z" id="path-5"></path>
        <mask id="mask-6" maskContentUnits="userSpaceOnUse" maskUnits="objectBoundingBox" x="0" y="0" width="69.3359688" height="46.3399145" fill="white">
            <use xlink:href="#path-5"></use>
        </mask>
        <path d="M0.224793299,99.3210744 L9.09927381,88.1960437 C17.9982751,95.4314795 28.847219,99.8130712 40.218844,100.7539 L39.1178112,115.011965 C24.9027576,113.831962 11.3456084,108.367363 0.224793299,99.3210744 Z" id="path-7"></path>
        <mask id="mask-8" maskContentUnits="userSpaceOnUse" maskUnits="objectBoundingBox" x="0" y="0" width="39.9940507" height="26.8159218" fill="white">
            <use xlink:href="#path-7"></use>
        </mask>
        <path d="M0.224793299,101.321074 C-5.30983503,96.823648 -10.1422654,91.5123687 -14.1195168,85.5772696 L-2.37340717,77.6025788 C0.807597691,82.3494699 4.67157115,86.5981026 9.09927381,90.1960437 L0.224793299,101.321074" id="path-9"></path>
        <mask id="mask-10" maskContentUnits="userSpaceOnUse" maskUnits="objectBoundingBox" x="0" y="0" width="23.2187906" height="23.7184956" fill="white">
            <use xlink:href="#path-9"></use>
        </mask>
        <circle id="path-11" cx="69.5" cy="66.5" r="66.5"></circle>
        <mask id="mask-12" maskContentUnits="userSpaceOnUse" maskUnits="objectBoundingBox" x="0" y="0" width="133" height="133" fill="white">
            <use xlink:href="#path-11"></use>
        </mask>
        <mask id="mask-14" maskContentUnits="userSpaceOnUse" maskUnits="objectBoundingBox" x="0" y="0" width="133" height="133" fill="white">
            <use xlink:href="#path-11"></use>
        </mask>
        <path d="M69.5,129 C104.017797,129 132,101.017797 132,66.5 C132,31.9822031 104.017797,4 69.5,4 C34.9822031,4 7,31.9822031 7,66.5 C7,101.017797 34.9822031,129 69.5,129 Z" id="path-15"></path>
        <mask id="mask-16" maskContentUnits="userSpaceOnUse" maskUnits="objectBoundingBox" x="0" y="0" width="125" height="125" fill="white">
            <use xlink:href="#path-15"></use>
        </mask>
    </defs>
    <g id="Page-1" stroke="none" stroke-width="1" fill="none" fill-rule="evenodd">
        <g id="Computational-Biology">
            <g id="Group-61" transform="translate(2.000000, 4.000000)">
                <g stroke-width="1" transform="translate(65.000000, 62.000000) rotate(-270.000000) translate(-65.000000, -62.000000) translate(-3.000000, -6.000000)">
                    <g id="Group" transform="translate(66.961914, 68.766602) scale(-1, 1) translate(-66.961914, -68.766602) translate(0.461914, 2.266602)">
                        <mask id="mask-2" fill="white">
                            <use xlink:href="#path-1"></use>
                        </mask>
                        <g id="Mask"></g>
                        <path d="M15.9619141,105.233397 L36.7747041,103.224902 C36.7747041,103.224902 43.5492662,51.6463022 102.193753,69.129652 C102.133298,69.2382116 106.461917,58.2333984 106.461917,58.2333984 C106.461917,58.2333984 50.4912831,41.8846987 15.9619141,105.233397 Z" id="Shape" fill="#FFDD88" opacity="0.7" mask="url(#mask-2)"></path>
                        <path d="M98.9619144,17.7333984 C98.9619144,17.7333984 52.6180931,47.9416553 79.4619136,102.733398 L84.4619144,97.2333984 C84.4619144,97.2333984 74.9923896,46.6365956 115.461913,14.2333984" id="Shape-Copy" fill-opacity="0.608950408" fill="#FEB600" opacity="0.7" mask="url(#mask-2)"></path>
                        <path d="M16.5864804,9.77559517 C9.82085018,26.8196082 21.4059858,35.2002679 36.183874,65.3638674 L48.2434668,39.5744463 C48.2434668,39.5744463 22.6167008,39.3555941 27.9610169,15.6188607 C30.167478,5.81888266 57.6799979,13.9190031 57.6799979,13.9190031 L54.608202,-7.40150585 C54.608202,-7.40150585 22.1105199,-4.14059546 16.5864804,9.77559517 Z" id="Shape-Copy-2" fill-opacity="0.698907382" fill="#FEB600" opacity="0.7" mask="url(#mask-2)" transform="translate(36.143939, 28.981181) rotate(-150.000000) translate(-36.143939, -28.981181) "></path>
                        <path d="M63.2095841,35.8708975 C56.4439538,52.9149105 82.1672174,61.6998419 96.9451056,91.8634414 L100.799918,73.4137649 C100.799918,73.4137649 65.4535151,62.3313244 70.7978312,38.594591 C73.0042923,28.794613 110.650397,54.4146079 110.650397,54.4146079 C110.650397,54.4146079 109.667995,37.3255788 110.102115,39.7875984 C110.102115,39.7875984 68.7336236,21.9547068 63.2095841,35.8708975 Z" id="Shape-Copy-3" fill-opacity="0.851817255" fill="#FEB600" opacity="0.7" mask="url(#mask-2)" transform="translate(86.374150, 61.211838) rotate(10.000000) translate(-86.374150, -61.211838) "></path>
                        <path d="M8.34343851,72.3917506 C12.6411087,68.4241087 17.6004108,63.6847155 22.7807653,58.4891996 C25.3706479,55.8894273 28.0594984,53.1982375 30.7462258,50.4231188 C33.4374468,47.6510714 36.1401797,44.8032518 38.8735949,41.9644743 C40.2359703,40.5433285 41.5894207,39.1107687 42.9338779,37.6785662 C43.604855,36.9605579 44.2744725,36.2438067 44.9418682,35.5293842 C45.6020008,34.8066761 46.2738486,34.0988392 46.9474708,33.396588 C49.6247345,30.5717693 52.2387315,27.7580668 54.7507337,24.9984246 C57.3004056,22.2854529 59.7583465,19.6384556 62.070117,17.0822487 C62.647879,16.4420148 63.2175392,15.8105526 63.7790208,15.1883907 C64.3461955,14.5756001 64.9044836,13.9721241 65.453808,13.3784913 C66.5501849,12.1858256 67.6074604,11.025747 68.6186675,9.90085549 C69.6275672,8.76757834 70.5945009,7.68170262 71.5138761,6.64931423 C71.9718071,6.12902721 72.4146043,5.60764061 72.8519684,5.12676865 C73.2879019,4.64118243 73.7150344,4.17562512 74.121713,3.70995411 C75.7574233,1.86465562 77.1768587,0.232778624 78.3366165,-1.13648969 C80.6599324,-3.86719781 87.9039271,6.75923164 87.9039271,6.75923164 C87.9041375,6.75940306 86.3460695,7.69402354 83.6818942,9.50055127 C82.3477627,10.4000795 80.7394096,11.5231594 78.9015229,12.8376183 C77.9812896,13.4932049 77.0095312,14.2085076 76.0027057,14.9803829 C74.9963305,15.7620869 73.9384481,16.5840068 72.8344204,17.4416425 C71.7329104,18.3078353 70.5894345,19.2214295 69.4074052,20.1751536 C68.8177369,20.6548871 68.2182073,21.1425494 67.6093141,21.6379549 C67.0070118,22.144646 66.4037524,22.6724372 65.7870417,23.2005002 C63.3292926,25.3278522 60.7465018,27.602837 58.1020901,30.0132813 C55.4876878,32.4777536 52.8041971,35.0627285 50.098652,37.7231615 C48.7410201,39.0423209 47.4087971,40.4454658 46.0635405,41.8314823 C44.7212432,43.2246417 43.3776157,44.628544 42.0427028,46.0436889 C39.3590854,48.8491363 36.7371902,51.7622538 34.1709105,54.6408696 C31.608221,57.5271425 29.0971985,60.3656422 26.7160685,63.1911524 C24.3327997,66.0119627 22.053795,68.7663697 19.916106,71.4035577 C17.7790272,74.0430172 15.7807315,76.5519578 13.9610605,78.925007 C12.1386052,81.288099 10.4878641,83.4771424 9.04260104,85.4380503 C7.59670701,87.3984439 3.87677983,93.2991047 2.86652632,94.7387834 C1.85116901,96.1731193 2.69966236,95.7317927 2.69966236,95.7317927 L-7.46623916,88.0914653 C-7.46623916,88.0914653 6.19645775,74.3773787 8.34343851,72.3917506 L33.0221236,50.1405172" id="Shape" fill="#FEB600" mask="url(#mask-2)" transform="translate(40.218844, 47.105341) rotate(-11.000000) translate(-40.218844, -47.105341) "></path>
                        <path d="M38.9619141,114.733401 L71.8542764,97.6463831 C71.8542764,97.6463831 51.2046697,70.1915137 75.7807711,-19.146025 C75.8399763,-19.1547411 63.4124177,-24.7602841 63.4124177,-24.7602841 C55.9947215,-29.423877 62.7229708,48.2283104 38.9619141,114.733401 Z" id="Shape" fill-opacity="0.99012115" fill="#FEB600" opacity="0.7" mask="url(#mask-2)"></path>
                        <g id="Segment-30" mask="url(#mask-2)" stroke="#FFFFFF" stroke-width="8.5" fill="#FEB80A" stroke-linecap="round" stroke-linejoin="round">
                            <use mask="url(#mask-4)" xlink:href="#path-3"></use>
                        </g>
                        <g id="Segment-20" mask="url(#mask-2)" stroke-width="8.5" stroke="#FFFFFF" fill="#FEB80A">
                            <use mask="url(#mask-6)" xlink:href="#path-5"></use>
                        </g>
                        <g id="Segment-10" mask="url(#mask-2)" stroke-width="8.5" stroke="#FFFFFF" fill="#FEB80A">
                            <use mask="url(#mask-8)" xlink:href="#path-7"></use>
                        </g>
                        <g id="Segment-5" mask="url(#mask-2)" stroke-width="4.5" stroke="#FFFFFF" fill="#FFCB48">
                            <use mask="url(#mask-10)" xlink:href="#path-9"></use>
                        </g>
                    </g>
                    <mask id="mask-13" fill="white">
                        <use xlink:href="#path-11"></use>
                    </mask>
                    <g id="Oval-3-Copy-5" stroke="#FEB600" mask="url(#mask-12)" stroke-width="8.976" transform="translate(69.500000, 66.500000) scale(-1, 1) translate(-69.500000, -66.500000) ">
                        <use mask="url(#mask-14)" xlink:href="#path-11"></use>
                    </g>
                    <g id="Oval-3-Copy-6" mask="url(#mask-13)" transform="translate(69.500000, 66.500000) scale(-1, 1) translate(-69.500000, -66.500000) " stroke-width="11.9799995" stroke="#FFFFFF">
                        <use mask="url(#mask-16)" xlink:href="#path-15"></use>
                    </g>
                </g>
                <rect id="Rectangle" fill="#FFFFFF" transform="translate(42.849149, 32.577695) rotate(-36.000000) translate(-42.849149, -32.577695) " x="40.8491495" y="25.0776951" width="4" height="15"></rect>
                <rect id="Rectangle-Copy-6" fill="#FFFFFF" transform="translate(49.182760, 28.760479) rotate(-31.000000) translate(-49.182760, -28.760479) " x="48.1073348" y="21.2604789" width="2.15085052" height="15"></rect>
                <rect id="Rectangle-Copy-10" fill="#FFFFFF" transform="translate(27.182760, 57.760479) rotate(-68.000000) translate(-27.182760, -57.760479) " x="26.1073348" y="50.2604789" width="2.15085052" height="15"></rect>
                <rect id="Rectangle-Copy-7" fill="#FFFFFF" transform="translate(65.032975, 22.289006) rotate(-24.000000) translate(-65.032975, -22.289006) " x="63.9575494" y="14.7890058" width="2.15085052" height="15"></rect>
                <rect id="Rectangle-Copy" fill="#FFFFFF" transform="translate(35.784365, 41.648617) rotate(-49.000000) translate(-35.784365, -41.648617) " x="33.7843652" y="34.1486174" width="4" height="15"></rect>
                <rect id="Rectangle-Copy-2" fill="#FFFFFF" transform="translate(28.590530, 50.186942) rotate(-63.000000) translate(-28.590530, -50.186942) " x="26.5905299" y="42.6869418" width="4" height="15"></rect>
                <rect id="Rectangle-Copy-11" fill="#FFFFFF" transform="translate(19.590530, 77.186942) rotate(-86.000000) translate(-19.590530, -77.186942) " x="17.5905299" y="69.6869418" width="4" height="15"></rect>
                <rect id="Rectangle-Copy-3" fill="#FFFFFF" transform="translate(21.784365, 68.648617) rotate(-82.000000) translate(-21.784365, -68.648617) " x="19.7843652" y="61.1486174" width="4" height="15"></rect>
                <rect id="Rectangle-Copy-4" fill="#FFFFFF" transform="translate(71.332798, 19.742526) rotate(-19.000000) translate(-71.332798, -19.742526) " x="69.3327983" y="12.2425256" width="4" height="15"></rect>
                <path d="M85.1486352,11.2205315 L89.1486352,11.2205315 L89.1486352,21.3397705 L89.1486352,26.2205315 L85.1486352,26.2205315 L85.1486352,11.2205315 Z" id="Rectangle-Copy-5" fill="#FFFFFF" transform="translate(87.148635, 18.720531) rotate(-17.000000) translate(-87.148635, -18.720531) "></path>
                <rect id="Rectangle-Copy-9" fill="#FFFFFF" transform="translate(101.266196, 21.355297) rotate(-12.000000) translate(-101.266196, -21.355297) " x="99.2661956" y="13.8552971" width="4" height="15"></rect>
            </g>
        </g>
    </g>
</svg>