<?xml version="1.0" encoding="UTF-8" standalone="no"?>
<svg width="120px" height="120px" viewBox="0 0 120 120" version="1.1" xmlns="http://www.w3.org/2000/svg" xmlns:xlink="http://www.w3.org/1999/xlink">
    <!-- Generator: Sketch 39.1 (31720) - http://www.bohemiancoding.com/sketch -->
    <title>environment</title>
    <desc>Created with Sketch.</desc>
    <defs>
        <circle id="path-1" cx="60" cy="60" r="60"></circle>
        <mask id="mask-2" maskContentUnits="userSpaceOnUse" maskUnits="objectBoundingBox" x="0" y="0" width="120" height="120" fill="white">
            <use xlink:href="#path-1"></use>
        </mask>
        <path d="M42,68.3532276 L34.569062,68.3532276 C32.3631288,68.3532276 31.3982908,66.7536199 32.4084065,64.7913401 L37.8196486,54.2793052 L37.1297481,54.2793052 C34.925665,54.2793052 33.9531736,52.6857087 34.9610997,50.7131132 L44.1777225,32.6754124 C45.1840942,30.7058589 46.8141907,30.7028169 47.8221168,32.6754124 L57.0387397,50.7131132 C58.0451113,52.6826667 57.0726351,54.2793052 54.8700912,54.2793052 L54.3685567,54.2793052 L59.7797988,64.7913401 C60.792435,66.7585163 59.8217731,68.3532276 57.6191433,68.3532276 L50,68.3532276 L50,76.0041738 C50,78.2110077 48.2046438,80 46,80 C43.790861,80 42,78.2034788 42,76.0041738 L42,68.3532276 Z" id="path-3"></path>
        <mask id="mask-4" maskContentUnits="userSpaceOnUse" maskUnits="objectBoundingBox" x="0" y="0" width="28.1733934" height="48.8028937" fill="white">
            <use xlink:href="#path-3"></use>
        </mask>
    </defs>
    <g id="Page-1" stroke="none" stroke-width="1" fill="none" fill-rule="evenodd">
        <g id="environment">
            <g id="Group-30-Copy">
                <g id="Group-5-Copy-5" stroke="#009E9D" stroke-width="8">
                    <use id="Oval-3" mask="url(#mask-2)" xlink:href="#path-1"></use>
                </g>
                <g id="Group-18" transform="translate(70.000000, 50.000000)"></g>
                <g id="Group-20" transform="translate(30.000000, 18.000000)">
                    <g id="Group-19" fill="#009E9D">
                        <g id="Group-18">
                            <path d="M18,60 L2.66236942,60 C0.453479522,60 -0.580583597,58.3754028 0.350536492,56.3760594 L9.83993089,36 L6.60728381,36 C4.39468941,36 3.40994507,34.4133339 4.41746465,32.4371168 L20.1851414,1.50932897 C21.1883321,-0.45839709 22.8104967,-0.466888089 23.8180162,1.50932897 L39.585693,32.4371168 C40.5888837,34.4048429 39.608491,36 37.3958739,36 L34.159396,36 L43.6487904,56.3760594 C44.5808903,58.3775065 43.5496643,60 41.3369575,60 L26,60 L26,76.009947 C26,78.2135924 24.2046438,80 22,80 C19.790861,80 18,78.2157067 18,76.009947 L18,60 Z" id="Combined-Shape"></path>
                        </g>
                    </g>
                    <use id="Combined-Shape" stroke-opacity="0.5" stroke="#009E9D" mask="url(#mask-4)" stroke-width="8" fill="#FFFFFF" xlink:href="#path-3"></use>
                    <circle id="Oval-6" fill="#7FCECE" cx="20" cy="22" r="4"></circle>
                    <circle id="Oval-6-Copy" fill="#7FCECE" cx="26" cy="36" r="4"></circle>
                    <circle id="Oval-6-Copy-2" fill="#7FCECE" cx="16" cy="48" r="4"></circle>
                </g>
            </g>
        </g>
    </g>
</svg>