<?xml version="1.0" encoding="UTF-8" standalone="no"?>
<svg width="120px" height="120px" viewBox="0 0 120 120" version="1.1" xmlns="http://www.w3.org/2000/svg" xmlns:xlink="http://www.w3.org/1999/xlink">
    <!-- Generator: Sketch 39.1 (31720) - http://www.bohemiancoding.com/sketch -->
    <title>proteometrics</title>
    <desc>Created with Sketch.</desc>
    <defs>
        <circle id="path-1" cx="60" cy="60" r="60"></circle>
        <mask id="mask-2" maskContentUnits="userSpaceOnUse" maskUnits="objectBoundingBox" x="0" y="0" width="120" height="120" fill="white">
            <use xlink:href="#path-1"></use>
        </mask>
    </defs>
    <g id="Page-1" stroke="none" stroke-width="1" fill="none" fill-rule="evenodd">
        <g id="proteometrics">
            <g id="Group-29-Copy">
                <g id="Group-5-Copy-6" stroke="#00DAE5" stroke-width="8">
                    <use id="Oval-3" mask="url(#mask-2)" xlink:href="#path-1"></use>
                </g>
                <circle id="Oval-7-Copy-2" fill="#A5F1F5" cx="76" cy="36" r="4"></circle>
                <rect id="Rectangle-13-Copy" fill="#A5F1F5" x="44" y="34" width="32" height="4"></rect>
                <circle id="Oval-7-Copy-5" fill="#A5F1F5" cx="72" cy="44" r="4"></circle>
                <circle id="Oval-7-Copy-9" fill="#A5F1F5" cx="72" cy="28" r="4"></circle>
                <rect id="Rectangle-13-Copy-2" fill="#A5F1F5" x="48" y="42" width="24" height="4"></rect>
                <rect id="Rectangle-13-Copy-4" fill="#A5F1F5" x="48" y="26" width="24" height="4"></rect>
                <circle id="Oval-7-Copy-7" fill="#A5F1F5" cx="68" cy="52" r="4"></circle>
                <circle id="Oval-7-Copy-11" fill="#A5F1F5" cx="68" cy="20" r="4"></circle>
                <rect id="Rectangle-13-Copy-3" fill="#A5F1F5" x="52" y="50" width="16" height="4"></rect>
                <rect id="Rectangle-13-Copy-5" fill="#A5F1F5" x="52" y="18" width="16" height="4"></rect>
                <circle id="Oval-7-Copy-12" fill="#A5F1F5" cx="52" cy="68" r="4"></circle>
                <circle id="Oval-7-Copy-21" fill="#A5F1F5" cx="52" cy="100" r="4"></circle>
                <rect id="Rectangle-13-Copy-6" fill="#A5F1F5" x="52" y="66" width="16" height="4"></rect>
                <rect id="Rectangle-13-Copy-10" fill="#A5F1F5" x="52" y="98" width="16" height="4"></rect>
                <circle id="Oval-7-Copy-14" fill="#A5F1F5" cx="48" cy="76" r="4"></circle>
                <circle id="Oval-7-Copy-19" fill="#A5F1F5" cx="48" cy="92" r="4"></circle>
                <rect id="Rectangle-13-Copy-7" fill="#A5F1F5" x="48" y="74" width="24" height="4"></rect>
                <rect id="Rectangle-13-Copy-9" fill="#A5F1F5" x="48" y="90" width="24" height="4"></rect>
                <circle id="Oval-7-Copy-16" fill="#A5F1F5" cx="44" cy="84" r="4"></circle>
                <rect id="Rectangle-13-Copy-8" fill="#A5F1F5" x="44" y="82" width="32" height="4"></rect>
                <circle id="Oval-7-Copy-3" fill="#00DAE5" cx="44" cy="36" r="4"></circle>
                <circle id="Oval-7-Copy-4" fill="#00DAE5" cx="48" cy="44" r="4"></circle>
                <circle id="Oval-7-Copy-10" fill="#00DAE5" cx="48" cy="28" r="4"></circle>
                <circle id="Oval-7-Copy-6" fill="#00DAE5" cx="52" cy="52" r="4"></circle>
                <circle id="Oval-7-Copy-22" fill="#00DAE5" cx="52" cy="20" r="4"></circle>
                <circle id="Oval-7-Copy-8" fill="#00DAE5" cx="60" cy="60" r="4"></circle>
                <circle id="Oval-7-Copy-13" fill="#00DAE5" cx="68" cy="68" r="4"></circle>
                <circle id="Oval-7-Copy-20" fill="#00DAE5" cx="68" cy="100" r="4"></circle>
                <circle id="Oval-7-Copy-15" fill="#00DAE5" cx="72" cy="76" r="4"></circle>
                <circle id="Oval-7-Copy-18" fill="#00DAE5" cx="72" cy="92" r="4"></circle>
                <circle id="Oval-7-Copy-17" fill="#00DAE5" cx="76" cy="84" r="4"></circle>
            </g>
        </g>
    </g>
</svg>