<?xml version="1.0" encoding="UTF-8" standalone="no"?>
<svg width="120px" height="120px" viewBox="0 0 120 120" version="1.1" xmlns="http://www.w3.org/2000/svg" xmlns:xlink="http://www.w3.org/1999/xlink">
    <!-- Generator: Sketch 39.1 (31720) - http://www.bohemiancoding.com/sketch -->
    <title>compbio</title>
    <desc>Created with Sketch.</desc>
    <defs>
        <circle id="path-1" cx="60" cy="60" r="60"></circle>
        <mask id="mask-2" maskContentUnits="userSpaceOnUse" maskUnits="objectBoundingBox" x="0" y="0" width="120" height="120" fill="white">
            <use xlink:href="#path-1"></use>
        </mask>
        <rect id="path-3" x="20" y="40" width="4" height="20"></rect>
        <mask id="mask-4" maskContentUnits="userSpaceOnUse" maskUnits="objectBoundingBox" x="0" y="0" width="4" height="20" fill="white">
            <use xlink:href="#path-3"></use>
        </mask>
        <path d="M22.0007107,38.7028636 C23.4653413,37.0453079 25.6070219,36 27.9916525,36 L44,36 L44,46 C44,51.5228475 39.5139376,56 33.9956275,56 L22,56 L10.0043725,56 C4.47911015,56 0,51.5240618 0,46 L0,36 L16.0083475,36 C18.3944918,36 20.5363854,37.0450642 22.0007107,38.7028636 Z" id="path-5"></path>
        <mask id="mask-6" maskContentUnits="userSpaceOnUse" maskUnits="objectBoundingBox" x="0" y="0" width="44" height="20" fill="white">
            <use xlink:href="#path-5"></use>
        </mask>
        <path d="M28,14 L28,8 C28,3.59071231 24.4160688,0 19.9950655,0 L8.00493448,0 C3.57465974,0 0,3.581722 0,8 L0,14 L0,28.0036298 C0,34.6344482 5.37095791,40 11.9963702,40 L16.0036298,40 C22.6344482,40 28,34.6290421 28,28.0036298 L28,14 Z" id="path-7"></path>
        <mask id="mask-8" maskContentUnits="userSpaceOnUse" maskUnits="objectBoundingBox" x="0" y="0" width="28" height="40" fill="white">
            <use xlink:href="#path-7"></use>
        </mask>
        <path d="M12,12 L0,12 L0,16 L28,16 L28,12 L16,12 L16,0 L12,0 L12,12 Z" id="path-9"></path>
        <mask id="mask-10" maskContentUnits="userSpaceOnUse" maskUnits="objectBoundingBox" x="0" y="0" width="28" height="16" fill="white">
            <use xlink:href="#path-9"></use>
        </mask>
        <circle id="path-11" cx="22" cy="16" r="8"></circle>
        <mask id="mask-12" maskContentUnits="userSpaceOnUse" maskUnits="objectBoundingBox" x="0" y="0" width="16" height="16" fill="white">
            <use xlink:href="#path-11"></use>
        </mask>
    </defs>
    <g id="Page-1" stroke="none" stroke-width="1" fill="none" fill-rule="evenodd">
        <g id="compbio">
            <g id="Group-5-Copy-7" stroke="#FEB600" stroke-width="8">
                <use id="Oval-3" mask="url(#mask-2)" xlink:href="#path-1"></use>
            </g>
            <g id="Group-23" transform="translate(38.000000, 14.000000)">
                <use id="Rectangle-14" stroke="#979797" mask="url(#mask-4)" stroke-width="4" fill="#D8D8D8" xlink:href="#path-3"></use>
                <circle id="Oval-7-Copy-23" fill="#FFE699" cx="14" cy="24" r="8"></circle>
                <circle id="Oval-7-Copy-25" fill="#FFE699" cx="14" cy="8" r="8"></circle>
                <circle id="Oval-7-Copy-24" fill="#FFE699" cx="30" cy="24" r="8"></circle>
                <circle id="Oval-7-Copy-26" fill="#FFE699" cx="30" cy="8" r="8"></circle>
                <use id="Combined-Shape" stroke-opacity="0.4" stroke="#FFC100" mask="url(#mask-6)" stroke-width="8" fill="#FFFFFF" xlink:href="#path-5"></use>
                <rect id="Rectangle-14-Copy" fill="#FFE699" x="20" y="16" width="4" height="40"></rect>
                <g id="Group-22" transform="translate(8.000000, 52.000000)" stroke="#FFC200">
                    <g id="Group-21">
                        <use id="Combined-Shape" mask="url(#mask-8)" stroke-width="8" fill="#FFFFFF" xlink:href="#path-7"></use>
                        <use id="Combined-Shape" mask="url(#mask-10)" stroke-width="4" fill="#D8D8D8" xlink:href="#path-9"></use>
                    </g>
                </g>
                <use id="Oval-7" stroke-opacity="0.4" stroke="#FFC100" mask="url(#mask-12)" stroke-width="8" fill="#FFFFFF" xlink:href="#path-11"></use>
            </g>
        </g>
    </g>
</svg>